<svg width="28" height="28" viewBox="0 0 28 28" fill="none" xmlns="http://www.w3.org/2000/svg">
<path d="M14 25.6783C20.4433 25.6783 25.6667 20.455 25.6667 14.0116C25.6667 7.56831 20.4433 2.34497 14 2.34497C7.55667 2.34497 2.33333 7.56831 2.33333 14.0116C2.33333 20.455 7.55667 25.6783 14 25.6783Z" fill="#337F89"/>
<path d="M14 8.09644C11.585 8.09644 9.625 10.0564 9.625 12.4714C9.625 14.8397 11.48 16.7647 13.9417 16.8347C13.9767 16.8347 14.0233 16.8347 14.0467 16.8347C14.07 16.8347 14.105 16.8347 14.1283 16.8347C14.14 16.8347 14.1517 16.8347 14.1517 16.8347C16.5083 16.7531 18.3633 14.8397 18.375 12.4714C18.375 10.0564 16.415 8.09644 14 8.09644Z" fill="white"/>
<path d="M21.9108 22.5867C19.8341 24.5 17.0575 25.6784 14.0008 25.6784C10.9441 25.6784 8.16747 24.5 6.09081 22.5867C6.37081 21.525 7.12914 20.5567 8.23747 19.81C11.4225 17.6867 16.6025 17.6867 19.7641 19.81C20.8841 20.5567 21.6308 21.525 21.9108 22.5867Z" fill="white"/>
</svg>
