<svg width="24" height="26" viewBox="0 0 24 26" fill="none" xmlns="http://www.w3.org/2000/svg">
<path d="M8.16667 9.875H15.8333" stroke="white" stroke-width="2" stroke-linecap="round"/>
<path d="M8.16667 13.5208H13.4375" stroke="white" stroke-width="2" stroke-linecap="round"/>
<path d="M1.69792 11.4375C1.69792 11.8689 2.01972 12.2187 2.41667 12.2187C2.81362 12.2187 3.13542 11.8689 3.13542 11.4375H1.69792ZM3.44545 16.7775C3.29355 16.3788 2.8731 16.1896 2.50636 16.3547C2.13963 16.5198 1.96547 16.9768 2.11737 17.3754L3.44545 16.7775ZM13.6599 23.1768L14.1794 22.2228L12.9423 21.4269L12.4228 22.3809L13.6599 23.1768ZM9.82055 22.2228L10.3401 23.1768L11.5771 22.3809L11.0576 21.4269L9.82055 22.2228ZM12.4228 22.3809C12.2382 22.7201 11.7619 22.7201 11.5771 22.3809L10.3401 23.1768C11.0814 24.5382 12.9186 24.5382 13.6599 23.1768L12.4228 22.3809ZM10.5625 3.36456H13.4375V1.80206H10.5625V3.36456ZM20.8646 11.4375V12.4791H22.3021V11.4375H20.8646ZM7.9774 19.5016C6.77427 19.479 6.14385 19.3959 5.6497 19.1734L5.09959 20.617C5.87102 20.9643 6.74966 21.0413 7.95264 21.0638L7.9774 19.5016ZM2.11737 17.3754C2.67665 18.843 3.74939 20.009 5.09959 20.617L5.6497 19.1734C4.65172 18.724 3.85883 17.8623 3.44545 16.7775L2.11737 17.3754ZM20.8646 12.4791C20.8646 13.7032 20.8642 14.5822 20.8207 15.2757C20.7776 15.9623 20.6946 16.41 20.5546 16.7775L21.8826 17.3754C22.1074 16.7858 22.2067 16.1482 22.2548 15.3821C22.3025 14.623 22.3021 13.6819 22.3021 12.4791H20.8646ZM16.0473 21.0638C17.2503 21.0413 18.129 20.9643 18.9004 20.617L18.3503 19.1734C17.8562 19.3959 17.2257 19.479 16.0226 19.5016L16.0473 21.0638ZM20.5546 16.7775C20.1411 17.8623 19.3483 18.724 18.3503 19.1734L18.9004 20.617C20.2506 20.009 21.3233 18.843 21.8826 17.3754L20.5546 16.7775ZM13.4375 3.36456C15.0199 3.36456 16.1563 3.36539 17.0427 3.45699C17.9184 3.54749 18.4756 3.72105 18.9197 4.01694L19.6709 2.68469C18.9628 2.21307 18.1596 2.00289 17.1787 1.90151C16.2085 1.80124 14.9921 1.80206 13.4375 1.80206V3.36456ZM22.3021 11.4375C22.3021 9.7477 22.3029 8.4255 22.2106 7.37093C22.1173 6.30473 21.9239 5.4317 21.4901 4.66209L20.2644 5.4785C20.5366 5.96134 20.6963 6.567 20.7796 7.51882C20.8638 8.48227 20.8646 9.71744 20.8646 11.4375H22.3021ZM18.9197 4.01694C19.4678 4.38198 19.9286 4.88281 20.2644 5.4785L21.4901 4.66209C21.0357 3.85617 20.4124 3.17856 19.6709 2.68469L18.9197 4.01694ZM10.5625 1.80206C9.00791 1.80206 7.79148 1.80124 6.82128 1.90151C5.84037 2.00289 5.03719 2.21307 4.32915 2.68469L5.08024 4.01694C5.52446 3.72105 6.08166 3.54749 6.95734 3.45699C7.84371 3.36539 8.98007 3.36456 10.5625 3.36456V1.80206ZM3.13542 11.4375C3.13542 9.71744 3.13618 8.48227 3.22046 7.51882C3.30372 6.567 3.46339 5.96134 3.73561 5.4785L2.50994 4.66209C2.07605 5.4317 1.88268 6.30473 1.78941 7.37093C1.69716 8.4255 1.69792 9.7477 1.69792 11.4375H3.13542ZM4.32915 2.68469C3.5877 3.17856 2.9643 3.85617 2.50994 4.66209L3.73561 5.4785C4.07145 4.88281 4.53221 4.38198 5.08024 4.01694L4.32915 2.68469ZM11.0576 21.4269C10.863 21.0696 10.6923 20.7543 10.5262 20.5065C10.3512 20.2457 10.1506 20.0108 9.87237 19.8349L9.14965 21.1856C9.19509 21.2143 9.25699 21.2666 9.36445 21.4269C9.48076 21.6004 9.61217 21.8401 9.82055 22.2228L11.0576 21.4269ZM7.95264 21.0638C8.37343 21.0718 8.63996 21.0776 8.84314 21.102C9.033 21.1249 9.10659 21.1583 9.14965 21.1856L9.87237 19.8349C9.59181 19.6575 9.29986 19.5849 9.00135 19.5489C8.71617 19.5147 8.37152 19.509 7.9774 19.5016L7.95264 21.0638ZM14.1794 22.2228C14.3878 21.8401 14.5192 21.6004 14.6355 21.4269C14.7429 21.2666 14.8049 21.2143 14.8503 21.1856L14.1276 19.8349C13.8494 20.0108 13.6487 20.2457 13.4738 20.5065C13.3077 20.7543 13.137 21.0696 12.9423 21.4269L14.1794 22.2228ZM16.0226 19.5016C15.6284 19.509 15.2838 19.5147 14.9986 19.5489C14.7001 19.5849 14.4082 19.6575 14.1276 19.8349L14.8503 21.1856C14.8934 21.1583 14.967 21.1249 15.1569 21.102C15.36 21.0776 15.6265 21.0718 16.0473 21.0638L16.0226 19.5016Z" fill="white"/>
</svg>
