<svg width="24" height="24" viewBox="0 0 24 24" fill="none" xmlns="http://www.w3.org/2000/svg">
<circle cx="12" cy="12" r="12" fill="#337F89"/>
<path d="M9.66667 11.125H14.3333" stroke="white" stroke-width="2" stroke-linecap="round"/>
<path d="M9.66667 13.3125H12.875" stroke="white" stroke-width="2" stroke-linecap="round"/>
<path d="M5.72917 12.0625C5.72917 12.3214 5.92505 12.5313 6.16667 12.5313C6.40829 12.5313 6.60417 12.3214 6.60417 12.0625H5.72917ZM6.79289 15.2665C6.70042 15.0273 6.4445 14.9138 6.22127 15.0128C5.99804 15.1119 5.89203 15.3861 5.98449 15.6253L6.79289 15.2665ZM13.0104 19.1061L13.3266 18.5337L12.5736 18.0561L12.2574 18.6286L13.0104 19.1061ZM10.6734 18.5337L10.9896 19.1061L11.7426 18.6286L11.4264 18.0561L10.6734 18.5337ZM12.2574 18.6286C12.145 18.8321 11.855 18.8321 11.7426 18.6286L10.9896 19.1061C11.4409 19.9229 12.5591 19.9229 13.0104 19.1061L12.2574 18.6286ZM11.125 7.21875H12.875V6.28125H11.125V7.21875ZM17.3958 12.0625V12.6875H18.2708V12.0625H17.3958ZM9.55146 16.901C8.81912 16.8874 8.43539 16.8376 8.1346 16.7041L7.79975 17.5702C8.26932 17.7786 8.80414 17.8248 9.53639 17.8383L9.55146 16.901ZM5.98449 15.6253C6.32492 16.5058 6.97789 17.2054 7.79975 17.5702L8.1346 16.7041C7.52713 16.4344 7.04451 15.9174 6.79289 15.2665L5.98449 15.6253ZM17.3958 12.6875C17.3958 13.4219 17.3956 13.9493 17.3691 14.3654C17.3429 14.7774 17.2924 15.046 17.2071 15.2665L18.0155 15.6253C18.1523 15.2715 18.2128 14.8889 18.2421 14.4293C18.2711 13.9738 18.2708 13.4091 18.2708 12.6875H17.3958ZM14.4636 17.8383C15.1959 17.8248 15.7307 17.7786 16.2002 17.5702L15.8654 16.7041C15.5646 16.8376 15.1809 16.8874 14.4485 16.901L14.4636 17.8383ZM17.2071 15.2665C16.9555 15.9174 16.4729 16.4344 15.8654 16.7041L16.2002 17.5702C17.0221 17.2054 17.6751 16.5058 18.0155 15.6253L17.2071 15.2665ZM12.875 7.21875C13.8382 7.21875 14.5299 7.21924 15.0694 7.27421C15.6025 7.32851 15.9416 7.43264 16.212 7.61018L16.6692 6.81083C16.2382 6.52786 15.7493 6.40174 15.1523 6.34092C14.5617 6.28076 13.8213 6.28125 12.875 6.28125V7.21875ZM18.2708 12.0625C18.2708 11.0486 18.2713 10.2553 18.2151 9.62257C18.1584 8.98285 18.0407 8.45903 17.7766 7.99727L17.0305 8.48711C17.1962 8.77682 17.2934 9.14021 17.3441 9.71131C17.3954 10.2894 17.3958 11.0305 17.3958 12.0625H18.2708ZM16.212 7.61018C16.5456 7.8292 16.8261 8.1297 17.0305 8.48711L17.7766 7.99727C17.5 7.51371 17.1206 7.10715 16.6692 6.81083L16.212 7.61018ZM11.125 6.28125C10.1787 6.28125 9.4383 6.28076 8.84774 6.34092C8.25067 6.40174 7.76177 6.52786 7.33079 6.81083L7.78798 7.61018C8.05837 7.43264 8.39754 7.32851 8.93056 7.27421C9.47009 7.21924 10.1618 7.21875 11.125 7.21875V6.28125ZM6.60417 12.0625C6.60417 11.0305 6.60463 10.2894 6.65593 9.71131C6.70661 9.14021 6.80381 8.77682 6.9695 8.48711L6.22344 7.99727C5.95934 8.45903 5.84163 8.98285 5.78486 9.62257C5.72871 10.2553 5.72917 11.0486 5.72917 12.0625H6.60417ZM7.33079 6.81083C6.87947 7.10715 6.50001 7.51371 6.22344 7.99727L6.9695 8.48711C7.17393 8.1297 7.45439 7.8292 7.78798 7.61018L7.33079 6.81083ZM11.4264 18.0561C11.3079 17.8418 11.204 17.6526 11.1029 17.5039C10.9964 17.3474 10.8743 17.2065 10.7049 17.1009L10.265 17.9114C10.2927 17.9286 10.3303 17.96 10.3958 18.0561C10.4666 18.1603 10.5465 18.3041 10.6734 18.5337L11.4264 18.0561ZM9.53639 17.8383C9.79253 17.8431 9.95476 17.8466 10.0784 17.8612C10.194 17.8749 10.2388 17.895 10.265 17.9114L10.7049 17.1009C10.5341 16.9945 10.3564 16.9509 10.1747 16.9294C10.0011 16.9088 9.79136 16.9054 9.55146 16.901L9.53639 17.8383ZM13.3266 18.5337C13.4534 18.3041 13.5334 18.1603 13.6042 18.0561C13.6696 17.96 13.7073 17.9286 13.735 17.9114L13.2951 17.1009C13.1257 17.2065 13.0036 17.3474 12.8971 17.5039C12.796 17.6526 12.6921 17.8418 12.5736 18.0561L13.3266 18.5337ZM14.4485 16.901C14.2086 16.9054 13.9989 16.9088 13.8253 16.9294C13.6435 16.9509 13.4659 16.9945 13.2951 17.1009L13.735 17.9114C13.7612 17.895 13.806 17.8749 13.9216 17.8612C14.0452 17.8466 14.2075 17.8431 14.4636 17.8383L14.4485 16.901Z" fill="white"/>
</svg>
