<svg width="23" height="23" viewBox="0 0 23 23" fill="none" xmlns="http://www.w3.org/2000/svg">
<path d="M5.75 21.0833H17.25C18.0125 21.0833 18.7438 20.7804 19.2829 20.2412C19.8221 19.7021 20.125 18.9708 20.125 18.2083V6.70829C20.125 6.19996 19.9231 5.71245 19.5636 5.353C19.2042 4.99356 18.7167 4.79163 18.2083 4.79163H16.2917V2.87496C16.2917 2.62079 16.1907 2.37704 16.011 2.19732C15.8313 2.01759 15.5875 1.91663 15.3333 1.91663C15.0792 1.91663 14.8354 2.01759 14.6557 2.19732C14.476 2.37704 14.375 2.62079 14.375 2.87496V4.79163H8.625V2.87496C8.625 2.62079 8.52403 2.37704 8.34431 2.19732C8.16459 2.01759 7.92083 1.91663 7.66667 1.91663C7.4125 1.91663 7.16875 2.01759 6.98902 2.19732C6.8093 2.37704 6.70833 2.62079 6.70833 2.87496V4.79163H4.79167C4.28333 4.79163 3.79582 4.99356 3.43638 5.353C3.07693 5.71245 2.875 6.19996 2.875 6.70829V18.2083C2.875 18.9708 3.1779 19.7021 3.71707 20.2412C4.25624 20.7804 4.9875 21.0833 5.75 21.0833ZM4.79167 11.9791C4.79167 11.852 4.84215 11.7302 4.93201 11.6403C5.02187 11.5504 5.14375 11.5 5.27083 11.5H17.7292C17.8562 11.5 17.9781 11.5504 18.068 11.6403C18.1579 11.7302 18.2083 11.852 18.2083 11.9791V18.2083C18.2083 18.4625 18.1074 18.7062 17.9276 18.8859C17.7479 19.0657 17.5042 19.1666 17.25 19.1666H5.75C5.49583 19.1666 5.25208 19.0657 5.07236 18.8859C4.89263 18.7062 4.79167 18.4625 4.79167 18.2083V11.9791Z" fill="#A3A3A3"/>
</svg>
