<svg width="23" height="23" viewBox="0 0 23 23" fill="none" xmlns="http://www.w3.org/2000/svg">
<g clip-path="url(#clip0_624_1362)">
<path d="M15.8306 15.8138C15.9983 15.683 16.1504 15.5309 16.4546 15.2267L20.2472 11.4342C20.3388 11.3425 20.2968 11.1846 20.1743 11.1421C19.7267 10.9868 19.1443 10.6952 18.5996 10.1505C18.0549 9.60575 17.7633 9.02338 17.608 8.57572C17.5655 8.45322 17.4075 8.41125 17.3159 8.50294L13.5234 12.2954C13.2191 12.5997 13.067 12.7518 12.9362 12.9195C12.7819 13.1174 12.6496 13.3314 12.5417 13.5579C12.4502 13.7499 12.3821 13.954 12.2461 14.3621L12.0703 14.8895L11.7907 15.7281L11.5286 16.5144C11.4617 16.7152 11.514 16.9366 11.6637 17.0864C11.8134 17.2361 12.0348 17.2883 12.2357 17.2214L13.022 16.9593L13.8605 16.6798L14.3879 16.5039C14.796 16.3679 15.0002 16.2999 15.1921 16.2084C15.4187 16.1005 15.6327 15.9681 15.8306 15.8138Z" fill="white"/>
<path d="M21.4345 10.2466C22.244 9.43714 22.244 8.12478 21.4345 7.31534C20.6251 6.50589 19.3128 6.50589 18.5033 7.31534L18.3814 7.43727C18.2637 7.55492 18.2104 7.71925 18.2398 7.88303C18.2583 7.98605 18.2925 8.13668 18.3549 8.3164C18.4796 8.67584 18.7151 9.14768 19.1587 9.59121C19.6022 10.0348 20.0741 10.2703 20.4335 10.395C20.6132 10.4573 20.7638 10.4916 20.8668 10.5101C21.0306 10.5395 21.195 10.4862 21.3126 10.3685L21.4345 10.2466Z" fill="white"/>
<path fill-rule="evenodd" clip-rule="evenodd" d="M3.99772 3.0395C2.87497 4.16227 2.87497 5.96931 2.87497 9.58341V13.4167C2.87497 17.0308 2.87497 18.8379 3.99772 19.9606C5.12049 21.0834 6.92753 21.0834 10.5416 21.0834H12.4583C16.0724 21.0834 17.8795 21.0834 19.0022 19.9606C20.107 18.8559 20.1247 17.0887 20.125 13.5893L17.4241 16.2902C17.1655 16.5489 16.9538 16.7608 16.7147 16.9473C16.4345 17.1658 16.1314 17.3532 15.8106 17.506C15.5369 17.6365 15.2527 17.7312 14.9057 17.8466L12.6903 18.5851C11.9729 18.8242 11.182 18.6376 10.6472 18.1028C10.1126 17.5681 9.92581 16.7771 10.165 16.0597L10.4271 15.2735L10.8824 13.9075L10.9034 13.8444C11.019 13.4974 11.1136 13.2132 11.244 12.9394C11.3969 12.6186 11.5842 12.3155 11.8028 12.0354C11.9893 11.7962 12.2012 11.5845 12.4599 11.326L16.2994 7.48647L17.365 6.42095L17.4869 6.29903C18.1725 5.61343 19.0711 5.27073 19.9697 5.27091C19.8247 4.2833 19.5443 3.58163 19.0022 3.0395C17.8795 1.91675 16.0724 1.91675 12.4583 1.91675H10.5416C6.92753 1.91675 5.12049 1.91675 3.99772 3.0395ZM6.94789 8.62508C6.94789 8.22813 7.26968 7.90633 7.66664 7.90633H13.8958C14.2927 7.90633 14.6146 8.22813 14.6146 8.62508C14.6146 9.02203 14.2927 9.34383 13.8958 9.34383H7.66664C7.26968 9.34383 6.94789 9.02203 6.94789 8.62508ZM6.94789 12.4584C6.94789 12.0615 7.26968 11.7397 7.66664 11.7397H10.0625C10.4594 11.7397 10.7812 12.0615 10.7812 12.4584C10.7812 12.8554 10.4594 13.1772 10.0625 13.1772H7.66664C7.26968 13.1772 6.94789 12.8554 6.94789 12.4584ZM6.94789 16.2917C6.94789 15.8948 7.26968 15.573 7.66664 15.573H9.10414C9.50109 15.573 9.82289 15.8948 9.82289 16.2917C9.82289 16.6887 9.50109 17.0105 9.10414 17.0105H7.66664C7.26968 17.0105 6.94789 16.6887 6.94789 16.2917Z" fill="white"/>
</g>
<defs>
<clipPath id="clip0_624_1362">
<rect width="23" height="23" fill="white"/>
</clipPath>
</defs>
</svg>
