<svg width="22" height="22" viewBox="0 0 22 22" fill="none" xmlns="http://www.w3.org/2000/svg">
<path d="M20.1667 4.58329V8.24996L11 11.9166L1.83333 8.24996V4.58329C1.83333 4.34018 1.92991 4.10702 2.10182 3.93511C2.27373 3.7632 2.50688 3.66663 2.75 3.66663H19.25C19.4931 3.66663 19.7263 3.7632 19.8982 3.93511C20.0701 4.10702 20.1667 4.34018 20.1667 4.58329ZM1.83333 10.2245V17.4166C1.83333 17.6597 1.92991 17.8929 2.10182 18.0648C2.27373 18.2367 2.50688 18.3333 2.75 18.3333H19.25C19.4931 18.3333 19.7263 18.2367 19.8982 18.0648C20.0701 17.8929 20.1667 17.6597 20.1667 17.4166V10.2245L11 13.8911L1.83333 10.2245Z" fill="#A3A3A3"/>
</svg>
