<svg width="23" height="23" viewBox="0 0 23 23" fill="none" xmlns="http://www.w3.org/2000/svg">
<path fill-rule="evenodd" clip-rule="evenodd" d="M1.53912 5.82724C2.0256 5.61876 2.58899 5.84411 2.79748 6.33059L1.91663 6.70809C2.79748 6.33059 2.79762 6.3309 2.79748 6.33059L2.79698 6.32944C2.79671 6.32881 2.79692 6.32926 2.79698 6.32944L2.80074 6.33793C2.80458 6.34657 2.81118 6.36125 2.82057 6.38157C2.83934 6.42222 2.86923 6.48536 2.91043 6.56776C2.9929 6.73271 3.12029 6.97398 3.29416 7.26609C3.64299 7.85213 4.17297 8.63266 4.89494 9.41016C5.06511 9.59338 5.2452 9.77584 5.43542 9.95496C5.44337 9.96224 5.45123 9.96962 5.45899 9.97709C6.88182 11.3095 8.86677 12.4581 11.5 12.4581C12.6585 12.4581 13.6834 12.2369 14.5867 11.8814C15.7616 11.4189 16.7464 10.7227 17.5525 9.96617C18.4625 9.11196 19.1309 8.19355 19.5722 7.48529C19.7921 7.13255 19.9532 6.83572 20.0578 6.63055C20.1101 6.52807 20.1481 6.44879 20.1721 6.39722C20.1841 6.37144 20.1927 6.35262 20.1977 6.34131L20.2024 6.33059C20.4111 5.84438 20.9745 5.6188 21.4608 5.82724C21.9473 6.03574 22.1727 6.59912 21.9641 7.0856L21.0833 6.70809C21.9641 7.0856 21.9642 7.08538 21.9641 7.0856L21.962 7.09041L21.9587 7.09829L21.9477 7.12306C21.9386 7.14349 21.9257 7.17171 21.9092 7.20711C21.8763 7.27789 21.8284 7.37753 21.7652 7.50133C21.6391 7.74874 21.4513 8.09391 21.1989 8.4989C20.8131 9.11814 20.2707 9.88615 19.5592 10.6606L20.3235 11.4248C20.6977 11.799 20.6977 12.4058 20.3235 12.78C19.9492 13.1543 19.3424 13.1543 18.9681 12.78L18.163 11.9748C17.6222 12.4116 17.0171 12.8235 16.3452 13.179L17.0949 14.3313C17.3835 14.7749 17.258 15.3685 16.8143 15.6572C16.3706 15.9459 15.7771 15.8202 15.4884 15.3766L14.544 13.9251C13.8933 14.1247 13.1982 14.266 12.4583 14.3322V15.8123C12.4583 16.3416 12.0292 16.7706 11.5 16.7706C10.9707 16.7706 10.5417 16.3416 10.5417 15.8123V14.3324C9.79926 14.2661 9.10431 14.1245 8.45571 13.9255L7.51156 15.3766C7.2229 15.8202 6.62926 15.9459 6.18564 15.6572C5.74201 15.3685 5.61638 14.7749 5.90504 14.3313L6.65484 13.1789C5.98389 12.8238 5.37861 12.4118 4.83716 11.9746L4.03178 12.78C3.65753 13.1543 3.05074 13.1543 2.67649 12.78C2.30223 12.4058 2.30223 11.799 2.67649 11.4248L3.44071 10.6606C2.63091 9.7791 2.03908 8.90481 1.64718 8.24644C1.44671 7.90964 1.29707 7.62683 1.19611 7.42492C1.14559 7.32389 1.10716 7.2429 1.08055 7.18529C1.06724 7.15648 1.05688 7.13349 1.04943 7.11674L1.04043 7.09634L1.03757 7.08974L1.03654 7.08736L1.03613 7.0864C1.03595 7.08598 1.03579 7.0856 1.91663 6.70809L1.03613 7.0864C0.82764 6.59993 1.05264 6.03574 1.53912 5.82724Z" fill="#A3A3A3"/>
</svg>
