<svg width="23" height="23" viewBox="0 0 23 23" fill="none" xmlns="http://www.w3.org/2000/svg">
<path d="M9.34375 11.5C9.34375 10.3092 10.3092 9.34375 11.5 9.34375C12.6908 9.34375 13.6562 10.3092 13.6562 11.5C13.6562 12.6908 12.6908 13.6562 11.5 13.6562C10.3092 13.6562 9.34375 12.6908 9.34375 11.5Z" fill="#A3A3A3"/>
<path fill-rule="evenodd" clip-rule="evenodd" d="M1.91666 11.5C1.91666 13.0711 2.32391 13.6002 3.13843 14.6584C4.76478 16.7712 7.49235 19.1666 11.5 19.1666C15.5076 19.1666 18.2352 16.7712 19.8615 14.6584C20.676 13.6002 21.0833 13.0711 21.0833 11.5C21.0833 9.92889 20.676 9.39982 19.8615 8.34163C18.2352 6.22872 15.5076 3.83331 11.5 3.83331C7.49235 3.83331 4.76478 6.22872 3.13843 8.34163C2.32391 9.39982 1.91666 9.92889 1.91666 11.5ZM11.5 7.90623C9.51521 7.90623 7.90624 9.5152 7.90624 11.5C7.90624 13.4848 9.51521 15.0937 11.5 15.0937C13.4848 15.0937 15.0937 13.4848 15.0937 11.5C15.0937 9.5152 13.4848 7.90623 11.5 7.90623Z" fill="#A3A3A3"/>
</svg>
