<svg width="28" height="28" viewBox="0 0 28 28" fill="none" xmlns="http://www.w3.org/2000/svg">
<path d="M25.6672 14.1223C25.6672 16.4299 24.9829 18.6856 23.7009 20.6043C22.4189 22.5229 20.5967 24.0183 18.4648 24.9014C16.3329 25.7844 13.9871 26.0155 11.7239 25.5653C9.46064 25.1151 7.38175 24.0039 5.75007 22.3723C4.11839 20.7406 3.0072 18.6617 2.55702 16.3985C2.10684 14.1353 2.33789 11.7894 3.22095 9.6575C4.10401 7.52561 5.59942 5.70344 7.51807 4.42144C9.43673 3.13944 11.6925 2.45517 14 2.45517C15.5322 2.45517 17.0493 2.75695 18.4648 3.34328C19.8804 3.92961 21.1665 4.78901 22.2499 5.8724C23.3333 6.9558 24.1927 8.24197 24.779 9.6575C25.3654 11.073 25.6672 12.5902 25.6672 14.1223ZM21.56 14.2107C21.5592 12.9001 21.2141 11.6126 20.5591 10.4772C19.9042 9.34191 18.9624 8.3986 17.8282 7.74178C16.6939 7.08496 15.407 6.7377 14.0963 6.73476C12.7856 6.73183 11.4972 7.07333 10.36 7.72506C9.66973 8.12292 9.04697 8.62779 8.51495 9.22085V8.20843C8.51495 8.05366 8.45346 7.90522 8.34402 7.79578C8.23458 7.68634 8.08614 7.62485 7.93137 7.62485C7.77659 7.62485 7.62816 7.68634 7.51872 7.79578C7.40927 7.90522 7.34779 8.05366 7.34779 8.20843V10.6547C7.34818 10.8093 7.40984 10.9573 7.51924 11.0664C7.62864 11.1756 7.77685 11.2369 7.93137 11.2369H10.3747C10.5242 11.2293 10.6651 11.1646 10.7683 11.0562C10.8715 10.9477 10.929 10.8037 10.929 10.654C10.929 10.5043 10.8715 10.3603 10.7683 10.2519C10.6651 10.1434 10.5242 10.0787 10.3747 10.0712H9.3181C9.91 9.38857 10.6418 8.8413 11.4639 8.46649C12.286 8.09169 13.179 7.89814 14.0825 7.89896C15.3305 7.89925 16.5503 8.26955 17.5878 8.96305C18.6253 9.65655 19.4339 10.6421 19.9113 11.7951C20.3887 12.9481 20.5136 14.2168 20.27 15.4407C20.0265 16.6647 19.4255 17.7889 18.5431 18.6713C17.6607 19.5538 16.5364 20.1547 15.3125 20.3983C14.0886 20.6418 12.8199 20.517 11.6669 20.0395C10.5139 19.5621 9.52833 18.7535 8.83483 17.716C8.14133 16.6785 7.77103 15.4587 7.77074 14.2107C7.77074 14.056 7.70925 13.9075 7.59981 13.7981C7.49037 13.6887 7.34193 13.6272 7.18716 13.6272C7.03238 13.6272 6.88395 13.6887 6.7745 13.7981C6.66506 13.9075 6.60358 14.056 6.60358 14.2107C6.60358 15.1929 6.79703 16.1654 7.17288 17.0728C7.54873 17.9802 8.09963 18.8047 8.79411 19.4992C9.4886 20.1936 10.3131 20.7445 11.2205 21.1204C12.1278 21.4962 13.1004 21.6897 14.0825 21.6897C15.0647 21.6897 16.0372 21.4962 16.9446 21.1204C17.852 20.7445 18.6765 20.1936 19.3709 19.4992C20.0654 18.8047 20.6163 17.9802 20.9922 17.0728C21.368 16.1654 21.56 15.1929 21.56 14.2107ZM14.5408 14.0649V10.1272C14.5333 9.97766 14.4686 9.83676 14.3602 9.7336C14.2517 9.63043 14.1077 9.57291 13.958 9.57291C13.8083 9.57291 13.6643 9.63043 13.5558 9.7336C13.4474 9.83676 13.3827 9.97766 13.3752 10.1272V14.3139C13.375 14.4029 13.3952 14.4908 13.4343 14.5707C13.4734 14.6507 13.5303 14.7206 13.6006 14.7752L15.8657 17.0387C15.9197 17.0938 15.984 17.1377 16.0551 17.1677C16.1261 17.1978 16.2024 17.2135 16.2795 17.2139C16.3567 17.2142 16.4331 17.1993 16.5044 17.17C16.5758 17.1407 16.6406 17.0975 16.6951 17.0429C16.7497 16.9884 16.7929 16.9236 16.8222 16.8522C16.8515 16.7809 16.8664 16.7045 16.8661 16.6273C16.8657 16.5502 16.85 16.4739 16.8199 16.4029C16.7899 16.3318 16.746 16.2675 16.6909 16.2135L14.5408 14.0649Z" fill="#337F89"/>
</svg>
