<svg width="26" height="26" viewBox="0 0 26 26" fill="none" xmlns="http://www.w3.org/2000/svg">
<path d="M13 8.83331V13L15.6042 15.6041" stroke="white" stroke-width="2" stroke-linecap="round" stroke-linejoin="round"/>
<path d="M5.01859 7.65689L4.23735 7.66081C4.2395 8.08921 4.58626 8.43597 5.01467 8.43813L5.01859 7.65689ZM7.66628 8.45145C8.09775 8.45361 8.44928 8.1056 8.45145 7.67414C8.45361 7.24267 8.1056 6.89114 7.67414 6.88897L7.66628 8.45145ZM5.78651 5.00134C5.78433 4.56988 5.43281 4.22185 5.00134 4.22402C4.56988 4.2262 4.22185 4.57773 4.22403 5.00919L5.78651 5.00134ZM4.40625 13C4.40625 12.5685 4.05647 12.2188 3.625 12.2188C3.19353 12.2188 2.84375 12.5685 2.84375 13H4.40625ZM18.0786 21.7971C18.4522 21.581 18.5798 21.1031 18.3637 20.7296C18.1477 20.3561 17.6698 20.2284 17.2964 20.4446L18.0786 21.7971ZM20.4446 17.2964C20.2284 17.6698 20.3561 18.1477 20.7296 18.3637C21.1031 18.5798 21.581 18.4522 21.7971 18.0786L20.4446 17.2964ZM5.85451 5.78256C5.5479 6.08614 5.54543 6.58079 5.84901 6.88741C6.15258 7.19402 6.64723 7.19648 6.95384 6.89291L5.85451 5.78256ZM20.1482 5.85194C16.1689 1.87256 9.73835 1.83227 5.78531 5.78531L6.89017 6.89017C10.2226 3.55776 15.6638 3.57713 19.0434 6.95679L20.1482 5.85194ZM5.78531 5.78531L4.46617 7.10446L5.57102 8.20931L6.89017 6.89017L5.78531 5.78531ZM5.01467 8.43813L7.66628 8.45145L7.67414 6.88897L5.02252 6.87565L5.01467 8.43813ZM5.79983 7.65296L5.78651 5.00134L4.22403 5.00919L4.23735 7.66081L5.79983 7.65296ZM13 4.40625C17.7461 4.40625 21.5938 8.2538 21.5938 13H23.1562C23.1562 7.39085 18.6092 2.84375 13 2.84375V4.40625ZM13 21.5938C8.2538 21.5938 4.40625 17.7461 4.40625 13H2.84375C2.84375 18.6092 7.39085 23.1562 13 23.1562V21.5938ZM17.2964 20.4446C16.0331 21.1753 14.5666 21.5938 13 21.5938V23.1562C14.8486 23.1562 16.5841 22.6617 18.0786 21.7971L17.2964 20.4446ZM21.5938 13C21.5938 14.5666 21.1753 16.0331 20.4446 17.2964L21.7971 18.0786C22.6617 16.5841 23.1562 14.8486 23.1562 13H21.5938ZM6.95384 6.89291C8.50736 5.35478 10.6421 4.40625 13 4.40625V2.84375C10.214 2.84375 7.68868 3.96657 5.85451 5.78256L6.95384 6.89291Z" fill="white"/>
</svg>
