<svg width="23" height="23" viewBox="0 0 23 23" fill="none" xmlns="http://www.w3.org/2000/svg">
<path d="M11.4972 0.715942C7.13921 0.715942 3.59235 4.26422 3.59235 8.62219C3.59234 16.2903 11.0522 22.1198 11.0522 22.1198C11.3142 22.3285 11.6857 22.3285 11.9478 22.1198C11.9478 22.1198 19.4091 16.2903 19.4091 8.62219C19.409 4.26422 15.8552 0.715942 11.4972 0.715942ZM11.4972 5.02985C13.4734 5.02985 15.0951 6.64594 15.0952 8.62219C15.0952 10.5985 13.4735 12.2188 11.4972 12.2188C9.52092 12.2188 7.90483 10.5985 7.90485 8.62219C7.90485 6.64594 9.52094 5.02985 11.4972 5.02985Z" fill="#A3A3A3"/>
</svg>
