<svg width="23" height="23" viewBox="0 0 23 23" fill="none" xmlns="http://www.w3.org/2000/svg">
<path fill-rule="evenodd" clip-rule="evenodd" d="M5.03127 9.63562V7.66663C5.03127 4.09404 7.92743 1.19788 11.5 1.19788C15.0726 1.19788 17.9688 4.09404 17.9688 7.66663V9.63562C19.0371 9.71545 19.7328 9.91679 20.2413 10.4254C21.0834 11.2675 21.0834 12.6227 21.0834 15.3333C21.0834 18.0438 21.0834 19.3991 20.2413 20.2412C19.3992 21.0833 18.0439 21.0833 15.3334 21.0833H7.66669C4.95611 21.0833 3.60082 21.0833 2.75876 20.2412C1.91669 19.3991 1.91669 18.0438 1.91669 15.3333C1.91669 12.6227 1.91669 11.2675 2.75876 10.4254C3.26728 9.91679 3.96297 9.71545 5.03127 9.63562ZM6.46877 7.66663C6.46877 4.88795 8.72134 2.63538 11.5 2.63538C14.2787 2.63538 16.5313 4.88795 16.5313 7.66663V9.58674C16.1642 9.58329 15.766 9.58329 15.3334 9.58329H7.66669C7.23399 9.58329 6.83582 9.58329 6.46877 9.58674V7.66663ZM11.5 12.6979C11.897 12.6979 12.2188 13.0197 12.2188 13.4166V17.25C12.2188 17.6469 11.897 17.9687 11.5 17.9687C11.1031 17.9687 10.7813 17.6469 10.7813 17.25V13.4166C10.7813 13.0197 11.1031 12.6979 11.5 12.6979Z" fill="#A3A3A3"/>
</svg>
