<svg width="70" height="70" viewBox="0 0 70 70" fill="none" xmlns="http://www.w3.org/2000/svg">
<g clip-path="url(#clip0_624_1722)">
<path d="M37.2189 43.8614C36.0403 45.0409 36.0394 46.9611 37.2189 48.1456C37.7901 48.7168 38.5497 49.0316 39.3589 49.0316C40.1681 49.0316 40.9268 48.7177 41.501 48.1456L52.5131 37.1364C52.7866 36.8568 53.0034 36.5311 53.1659 36.1445C53.3153 35.7742 53.3919 35.3907 53.3919 35.0002C53.3919 34.6098 53.3162 34.2263 53.1557 33.8288C52.9994 33.4605 52.7804 33.1346 52.5039 32.8591L41.5008 21.856C40.9296 21.2839 40.1688 20.9691 39.3587 20.9691C38.5484 20.9691 37.7877 21.2849 37.2187 21.856C36.0381 23.0366 36.0381 24.9577 37.2187 26.1381L43.0528 31.9722H3.02706C1.35823 31.9724 0.00012207 33.3316 0.00012207 34.9995C0.00012207 36.6674 1.35823 38.0265 3.02706 38.0265H43.0528L37.2189 43.8614Z" fill="white"/>
<path d="M59.9102 7.88989H25.8697C20.3041 7.88989 15.7777 12.4163 15.7777 17.9799L15.7838 28.6834H16.3891C16.943 29.423 17.8249 29.9053 18.8066 29.9053C19.8177 29.9053 20.7046 29.4221 21.2524 28.6683L21.8345 28.6602V17.9797C21.8345 15.7569 23.6447 13.9467 25.8695 13.9467H59.9102C62.134 13.9467 63.9452 15.7569 63.9452 17.9797V52.0211C63.9452 54.2459 62.134 56.054 59.9102 56.054H25.8697C23.6449 56.054 21.8347 54.2459 21.8347 52.0211L21.8297 41.3126H21.2223C20.6684 40.5741 19.7865 40.0938 18.8057 40.0938C17.8179 40.0938 16.931 40.5811 16.3782 41.3299L15.7767 41.3389V52.0211C15.7767 57.5837 20.3031 62.11 25.8688 62.11H59.9102C65.4747 62.11 70.0002 57.5836 70.0002 52.0211V17.9797C70.0002 12.4161 65.4747 7.88989 59.9102 7.88989Z" fill="white"/>
</g>
<defs>
<clipPath id="clip0_624_1722">
<rect width="70" height="70" fill="white"/>
</clipPath>
</defs>
</svg>
