<svg width="215" height="173" viewBox="0 0 215 173" fill="none" xmlns="http://www.w3.org/2000/svg">
<path d="M13.4 150.96V165H9.98V159.22H4.66V165H1.24V150.96H4.66V156.46H9.98V150.96H13.4ZM28.2089 162.52H22.9689L22.1289 165H18.5489L23.6289 150.96H27.5889L32.6689 165H29.0489L28.2089 162.52ZM27.3289 159.88L25.5889 154.74L23.8689 159.88H27.3289ZM44.975 165L42.055 159.7H41.235V165H37.815V150.96H43.555C44.6617 150.96 45.6017 151.153 46.375 151.54C47.1617 151.927 47.7483 152.46 48.135 153.14C48.5217 153.807 48.715 154.553 48.715 155.38C48.715 156.313 48.4483 157.147 47.915 157.88C47.395 158.613 46.6217 159.133 45.595 159.44L48.835 165H44.975ZM41.235 157.28H43.355C43.9817 157.28 44.4483 157.127 44.755 156.82C45.075 156.513 45.235 156.08 45.235 155.52C45.235 154.987 45.075 154.567 44.755 154.26C44.4483 153.953 43.9817 153.8 43.355 153.8H41.235V157.28ZM63.2019 162.52H57.9619L57.1219 165H53.5419L58.6219 150.96H62.5819L67.6619 165H64.0419L63.2019 162.52ZM62.3219 159.88L60.5819 154.74L58.8619 159.88H62.3219ZM83.508 155.48C83.508 156.293 83.3213 157.04 82.948 157.72C82.5746 158.387 82.0013 158.927 81.228 159.34C80.4546 159.753 79.4946 159.96 78.348 159.96H76.228V165H72.808V150.96H78.348C79.468 150.96 80.4146 151.153 81.188 151.54C81.9613 151.927 82.5413 152.46 82.928 153.14C83.3146 153.82 83.508 154.6 83.508 155.48ZM78.088 157.24C78.7413 157.24 79.228 157.087 79.548 156.78C79.868 156.473 80.028 156.04 80.028 155.48C80.028 154.92 79.868 154.487 79.548 154.18C79.228 153.873 78.7413 153.72 78.088 153.72H76.228V157.24H78.088ZM97.6284 162.52H92.3884L91.5484 165H87.9684L93.0484 150.96H97.0084L102.088 165H98.4684L97.6284 162.52ZM96.7484 159.88L95.0084 154.74L93.2884 159.88H96.7484ZM119.795 165H116.375L110.655 156.34V165H107.235V150.96H110.655L116.375 159.66V150.96H119.795V165ZM141.852 165L137.132 158.8V165H133.712V150.96H137.132V157.12L141.812 150.96H145.832L140.392 157.84L146.032 165H141.852ZM154.677 162.36H159.157V165H151.257V150.96H154.677V162.36ZM167.808 150.96V165H164.388V150.96H167.808ZM186.447 165H183.027L177.307 156.34V165H173.887V150.96H177.307L183.027 159.66V150.96H186.447V165ZM195.946 150.96V165H192.526V150.96H195.946ZM210.164 165L205.444 158.8V165H202.024V150.96H205.444V157.12L210.124 150.96H214.144L208.704 157.84L214.344 165H210.164Z" fill="white"/>
<rect x="58" y="34" width="100" height="100" rx="11" fill="white"/>
<path d="M72.424 115V62.008C72.424 59.448 72.936 57.8267 73.96 57.144C75.0693 56.4613 76.904 56.12 79.464 56.12H93.416V79.032H122.344V56.12H143.336V108.344C143.336 110.989 142.909 112.781 142.056 113.72C141.203 114.573 139.24 115 136.168 115H122.344V89.912H93.416V115H72.424Z" fill="#009688"/>
</svg>
