<svg width="23" height="23" viewBox="0 0 23 23" fill="none" xmlns="http://www.w3.org/2000/svg">
<path d="M11.5 2.15625C6.34791 2.15625 2.15625 6.34791 2.15625 11.5C2.15625 16.6521 6.34791 20.8438 11.5 20.8438C16.6521 20.8438 20.8438 16.6521 20.8438 11.5C20.8438 6.34791 16.6521 2.15625 11.5 2.15625ZM9.24402 7.40402C9.81318 6.80072 10.6141 6.46875 11.5 6.46875C12.3859 6.46875 13.1796 6.80297 13.751 7.40941C14.3301 8.02395 14.6117 8.84961 14.5453 9.73727C14.4123 11.5 13.0467 12.9375 11.5 12.9375C9.95334 12.9375 8.58502 11.5 8.45475 9.73682C8.38871 8.84197 8.66992 8.01361 9.24402 7.40402ZM11.5 19.4062C10.4445 19.4069 9.3997 19.1957 8.42741 18.785C7.45513 18.3743 6.57522 17.7726 5.83984 17.0155C6.26101 16.4149 6.79765 15.9042 7.4184 15.5133C8.56346 14.7793 10.0126 14.375 11.5 14.375C12.9874 14.375 14.4365 14.7793 15.5803 15.5133C16.2015 15.904 16.7386 16.4147 17.1602 17.0155C16.4248 17.7727 15.5449 18.3745 14.5726 18.7852C13.6003 19.1958 12.5555 19.407 11.5 19.4062Z" fill="#A3A3A3"/>
</svg>
