<svg width="70" height="70" viewBox="0 0 70 70" fill="none" xmlns="http://www.w3.org/2000/svg">
<path d="M48.1803 48.1288C48.6907 47.7306 49.1536 47.2678 50.0796 46.3417L61.622 34.7993C61.9009 34.5205 61.7731 34.0398 61.4004 33.9103C60.038 33.4378 58.2655 32.5503 56.6077 30.8924C54.9499 29.2346 54.0623 27.4622 53.5898 26.0997C53.4603 25.7269 52.9797 25.5992 52.7008 25.8782L41.1584 37.4205C40.2324 38.3466 39.7695 38.8094 39.3714 39.3199C38.9018 39.9221 38.499 40.5734 38.1706 41.2629C37.892 41.8471 37.685 42.4684 37.2711 43.7106L36.7359 45.3156L35.8851 47.8677L35.0874 50.2608C34.8838 50.8722 35.0428 51.5459 35.4983 52.0018C35.9542 52.4574 36.628 52.6164 37.2393 52.4128L39.6324 51.6151L42.1845 50.7643L43.7895 50.2291C45.0315 49.8152 45.653 49.6081 46.2372 49.3296C46.9267 49.0011 47.578 48.5984 48.1803 48.1288Z" fill="white"/>
<path d="M65.2357 31.1856C67.6995 28.722 67.6995 24.7279 65.2357 22.2643C62.7723 19.8008 58.7782 19.8008 56.3145 22.2643L55.9435 22.6354C55.5854 22.9935 55.4232 23.4937 55.5127 23.9921C55.569 24.3057 55.6732 24.7641 55.863 25.3111C56.2425 26.405 56.9591 27.841 58.3092 29.1909C59.6591 30.541 61.0952 31.2576 62.189 31.6371C62.7362 31.827 63.1944 31.9311 63.5079 31.9874C64.0064 32.0769 64.5066 31.9148 64.8647 31.5566L65.2357 31.1856Z" fill="white"/>
<path fill-rule="evenodd" clip-rule="evenodd" d="M12.1672 9.25039C8.75012 12.6675 8.75012 18.1672 8.75012 29.1666V40.8333C8.75012 51.8326 8.75012 57.3326 12.1672 60.7495C15.5843 64.1666 21.084 64.1666 32.0835 64.1666H37.9168C48.9161 64.1666 54.4161 64.1666 57.833 60.7495C61.1953 57.3871 61.2492 52.0088 61.2501 41.3586L53.0301 49.5786C52.2432 50.3659 51.5989 51.0107 50.8712 51.5786C50.0183 52.2436 49.0958 52.8138 48.1196 53.279C47.2863 53.676 46.4215 53.9641 45.3654 54.3156L38.6229 56.5632C36.4395 57.2909 34.0324 56.7227 32.4049 55.0952C30.7777 53.4677 30.2092 51.0606 30.9372 48.8772L31.7349 46.4844L33.1206 42.3269L33.1845 42.135C33.5362 41.0789 33.8241 40.2138 34.2211 39.3805C34.6863 38.4043 35.2565 37.4818 35.9218 36.6292C36.4894 35.9012 37.1342 35.2569 37.9217 34.47L49.6071 22.7846L52.8501 19.5418L53.2211 19.1707C55.3077 17.0841 58.0427 16.0411 60.7776 16.0416C60.3363 13.0359 59.4829 10.9004 57.833 9.25039C54.4161 5.83331 48.9161 5.83331 37.9168 5.83331H32.0835C21.084 5.83331 15.5843 5.83331 12.1672 9.25039ZM21.146 26.25C21.146 25.0419 22.1253 24.0625 23.3335 24.0625H42.2918C43.4999 24.0625 44.4793 25.0419 44.4793 26.25C44.4793 27.4581 43.4999 28.4375 42.2918 28.4375H23.3335C22.1253 28.4375 21.146 27.4581 21.146 26.25ZM21.146 37.9166C21.146 36.7086 22.1253 35.7291 23.3335 35.7291H30.6251C31.8332 35.7291 32.8126 36.7086 32.8126 37.9166C32.8126 39.1247 31.8332 40.1041 30.6251 40.1041H23.3335C22.1253 40.1041 21.146 39.1247 21.146 37.9166ZM21.146 49.5833C21.146 48.3752 22.1253 47.3958 23.3335 47.3958H27.7085C28.9166 47.3958 29.896 48.3752 29.896 49.5833C29.896 50.7914 28.9166 51.7708 27.7085 51.7708H23.3335C22.1253 51.7708 21.146 50.7914 21.146 49.5833Z" fill="white"/>
</svg>
